<svg width="143" height="19" viewBox="0 0 143 19" fill="none" xmlns="http://www.w3.org/2000/svg">
<g clip-path="url(#clip0_18_459)">
<path d="M92.868 15.1007C92.6879 15.5965 92.6429 15.9571 92.6429 16.2275C92.6429 17.084 93.6334 17.8052 95.3444 17.8052C98.4061 17.8052 100.657 16.4079 103.134 12.8018L103.359 12.8919C102.819 13.8385 101.063 17.1291 100.522 18.4813C96.47 18.4363 93.8586 18.4363 91.7874 18.4363C89.7162 18.4363 88.2304 18.4813 86.3394 18.4813L86.4744 18.1207C88.0053 18.0757 88.6807 17.8954 89.221 17.084C89.6712 16.3628 90.6618 13.6582 92.0125 10.0071L92.4628 8.8351C93.7685 5.18396 94.8041 2.43433 94.8041 1.71312C94.8041 0.991902 94.3088 0.811599 92.823 0.721447L92.9581 0.36084C94.2188 0.405916 95.5695 0.405916 96.9203 0.405916C98.271 0.405916 99.6218 0.36084 100.928 0.36084L100.792 0.721447C99.2616 0.766523 98.5862 0.946826 98.0459 1.75819C97.5957 2.47941 96.6051 5.18396 95.2543 8.8351L92.868 15.1007Z" fill="#1A1B33"/>
<path d="M120.018 8.78985C121.324 5.1387 122.315 2.43415 122.315 1.71294C122.315 0.946646 121.819 0.811418 119.523 0.676191L119.658 0.315584C120.964 0.36066 122.044 0.36066 123.08 0.36066C124.116 0.36066 125.196 0.315584 126.502 0.315584L126.367 0.676191C124.656 0.676191 124.116 0.991722 123.575 1.80309C123.215 2.38907 122.135 5.1387 120.784 8.78985L119.658 11.8099C117.992 16.3175 115.111 18.7065 110.923 18.7065C108.042 18.7065 105.43 17.1289 105.43 13.7933C105.43 12.8918 105.61 11.855 106.061 10.638L106.781 8.74477C108.087 5.09363 109.122 2.344 109.122 1.62278C109.122 0.90157 108.627 0.721267 107.141 0.631115L107.276 0.270508C108.537 0.315584 109.888 0.315584 111.238 0.315584C112.589 0.315584 113.94 0.270508 115.246 0.270508L115.111 0.631115C113.58 0.676191 112.904 0.856494 112.364 1.66786C111.914 2.38907 110.923 5.09363 109.572 8.74477L108.852 10.7281C108.402 11.855 108.267 12.8918 108.267 13.7482C108.267 15.9569 109.663 17.3543 112.139 17.3543C115.336 17.3543 117.632 15.3259 119.073 11.4042L120.018 8.78985Z" fill="#1A1B33"/>
<path d="M138.524 18.4361C137.308 18.391 136.092 18.391 134.877 18.391C133.661 18.391 132.175 18.4361 131.004 18.4361L131.139 18.0755C133.166 17.9853 133.661 17.805 133.661 17.219C133.661 16.9937 133.571 16.6781 133.481 16.3175L131.41 9.73644L124.476 16.3175C123.89 16.9035 123.53 17.2641 123.53 17.5796C123.53 17.9403 124.071 17.9853 125.736 18.0755L125.601 18.4361C124.566 18.391 123.26 18.391 122.134 18.391C121.009 18.391 119.928 18.4361 118.983 18.4361L119.118 18.0755C121.054 18.0304 121.999 17.4444 123.35 16.2274L131.23 9.01523L129.203 2.56938C128.753 1.12695 128.483 0.631115 126.952 0.631115L127.087 0.270508C128.123 0.315584 129.158 0.315584 130.284 0.315584C131.455 0.315584 132.85 0.270508 134.246 0.270508L134.111 0.631115C132.175 0.721267 131.725 0.946646 131.725 1.53263C131.725 1.75801 131.905 2.38907 132.085 2.97506L133.526 7.48265L138.839 2.47923C139.469 1.89324 139.874 1.44248 139.874 1.12695C139.874 0.811418 139.559 0.766342 137.938 0.631115L138.073 0.270508C139.109 0.315584 140.235 0.315584 141.18 0.315584C142.126 0.315584 143.071 0.270508 144.017 0.270508L143.882 0.631115C142.351 0.676191 141.54 1.2171 140.009 2.56938L133.751 8.06863L136.317 16.1372C136.723 17.3993 137.038 17.9853 138.659 17.9853L138.524 18.4361Z" fill="#1A1B33"/>
<path d="M8.91499 18.8868C3.60201 18.8868 0 15.0103 0 9.42086C0 3.83145 3.60201 0 8.91499 0C14.228 0 17.83 3.83145 17.83 9.42086C17.7849 15.0103 14.1829 18.8868 8.91499 18.8868ZM8.91499 1.53258C4.63759 1.53258 1.89106 4.59774 1.89106 9.42086C1.89106 14.244 4.63759 17.3091 8.91499 17.3091C13.1924 17.3091 15.9389 14.244 15.9389 9.42086C15.9389 4.59774 13.1474 1.53258 8.91499 1.53258Z" fill="#1A1B33"/>
<path d="M27.7805 0C32.8684 0 35.795 3.11024 36.1102 7.79813L34.3542 7.88828C34.1741 4.19206 31.7877 1.53258 27.7805 1.53258C23.8183 1.53258 20.8466 4.55266 20.8466 9.42086C20.8466 14.2891 23.7733 17.3091 27.7805 17.3091C31.7877 17.3091 34.1741 14.6046 34.3542 10.9534L36.1102 11.0436C35.795 15.7315 32.8684 18.8868 27.7805 18.8868C22.8277 18.8868 18.9556 15.0553 18.9556 9.46593C18.9556 3.83145 22.8277 0 27.7805 0Z" fill="#1A1B33"/>
<path d="M50.6984 18.5264H38.1364V0.36084H50.4282V1.89342H39.8923V8.33927H48.3571V9.87185H39.8923V16.9938H50.6984V18.5264Z" fill="#1A1B33"/>
<path d="M60.8291 0.36084L68.4834 18.5264H66.5473L64.1159 12.6666H55.5161L53.1748 18.5264H51.3738L58.848 0.36084H60.8291ZM56.1464 11.134H63.4856L59.8385 2.2991H59.7034L56.1464 11.134Z" fill="#1A1B33"/>
<path d="M82.6662 15.326V0.36084H84.3772V18.5264H82.9364L71.6801 2.84001V18.4813H69.9691V0.36084H71.9952L82.6662 15.326Z" fill="#1A1B33"/>
</g>
<defs>
<clipPath id="clip0_18_459">
<rect width="143" height="18.8868" fill="white"/>
</clipPath>
</defs>
</svg>
